<svg width="803" height="581" viewBox="0 0 803 581" fill="none" xmlns="http://www.w3.org/2000/svg">
<path d="M411.745 281.09L586.745 246.098L590.545 342.109L576.845 450.871L586.745 580.579H398.012L402.924 430.087C402.924 430.087 360.812 370.67 385.621 310.779L411.745 281.09Z" fill="#6C63FF"/>
<path d="M801.963 53.331C802.84 57.3609 802.823 61.534 801.913 65.5565C801.002 69.579 799.221 73.3531 796.695 76.6128C794.168 79.8725 790.958 82.5387 787.29 84.4235C783.621 86.3084 779.584 87.366 775.463 87.522L607.649 282.122L568.633 234.772L745.857 58.38C746.054 51.4383 748.79 44.81 753.548 39.7512C758.306 34.6925 764.754 31.5549 771.67 30.933C778.587 30.3111 785.492 32.2481 791.075 36.377C796.659 40.5059 800.534 46.5397 801.966 53.335L801.963 53.331Z" fill="#FEB8B8"/>
<path d="M644.184 260.883C644.224 262.7 643.871 264.505 643.149 266.173C642.427 267.842 641.354 269.335 640.003 270.551L592.816 313.029C589.888 316.594 586.286 319.548 582.216 321.721C578.146 323.895 573.687 325.245 569.096 325.695C564.504 326.146 559.868 325.687 555.453 324.346C551.039 323.005 546.931 320.807 543.366 317.879C539.801 314.951 536.847 311.348 534.674 307.278C532.5 303.209 531.15 298.75 530.7 294.158C530.249 289.567 530.708 284.931 532.049 280.516C533.39 276.102 535.588 271.994 538.516 268.429L571.457 213.919C572.397 212.363 573.662 211.028 575.164 210.005C576.667 208.982 578.372 208.294 580.165 207.99C581.957 207.685 583.794 207.77 585.55 208.239C587.306 208.709 588.941 209.551 590.342 210.709L639.595 251.409C640.997 252.567 642.133 254.013 642.925 255.649C643.717 257.286 644.146 259.074 644.184 260.892L644.184 260.883Z" fill="#6C63FF"/>
<path d="M137.347 510.642C137.085 506.526 137.728 502.402 139.232 498.562C140.736 494.721 143.063 491.257 146.05 488.413C149.038 485.569 152.612 483.415 156.522 482.102C160.432 480.789 164.583 480.349 168.681 480.814L363.794 313.603L395.263 366.271L193.578 514.071C192.342 520.905 188.642 527.048 183.179 531.336C177.716 535.623 170.87 537.758 163.938 537.335C157.006 536.912 150.47 533.96 145.569 529.04C140.668 524.12 137.743 517.572 137.347 510.639V510.642Z" fill="#FEB8B8"/>
<path d="M493.069 198.052C532.415 198.052 564.311 166.156 564.311 126.81C564.311 87.4641 532.415 55.568 493.069 55.568C453.723 55.568 421.827 87.4641 421.827 126.81C421.827 166.156 453.723 198.052 493.069 198.052Z" fill="#3F3D56"/>
<path d="M324.482 329.114C324.716 327.311 325.335 325.58 326.299 324.038C327.263 322.497 328.548 321.182 330.066 320.182L383.093 285.265C386.505 282.156 390.495 279.75 394.837 278.184C399.179 276.618 403.787 275.924 408.397 276.139C413.008 276.355 417.531 277.477 421.707 279.441C425.884 281.405 429.633 284.173 432.739 287.587C435.846 291.001 438.249 294.993 439.812 299.336C441.375 303.679 442.067 308.287 441.848 312.897C441.63 317.508 440.505 322.03 438.538 326.205C436.571 330.381 433.8 334.128 430.384 337.232C430.285 337.322 430.185 337.413 430.084 337.502L389.333 386.463C388.17 387.86 386.72 388.99 385.081 389.776C383.442 390.562 381.652 390.986 379.835 391.018C378.017 391.05 376.214 390.691 374.548 389.963C372.882 389.236 371.393 388.158 370.181 386.803L327.593 339.178C326.38 337.823 325.474 336.223 324.937 334.486C324.399 332.749 324.243 330.917 324.478 329.114H324.482Z" fill="#6C63FF"/>
<path d="M486.329 236.29C521.953 236.29 550.831 207.411 550.831 171.788C550.831 136.165 521.953 107.286 486.329 107.286C450.706 107.286 421.827 136.165 421.827 171.788C421.827 207.411 450.706 236.29 486.329 236.29Z" fill="#FEB8B8"/>
<path d="M530.256 0C524.872 7.68903 516.892 13.1746 507.784 15.447C492.071 19.655 507.656 43.266 507.656 43.266C507.656 43.266 501.989 34.68 510.163 25.587C518.337 16.494 531.492 10.278 530.256 0Z" fill="#3F3D56"/>
<path d="M504.872 68.784C515.837 68.784 524.726 59.8951 524.726 48.93C524.726 37.9649 515.837 29.076 504.872 29.076C493.907 29.076 485.018 37.9649 485.018 48.93C485.018 59.8951 493.907 68.784 504.872 68.784Z" fill="#3F3D56"/>
<path d="M534.54 65.572C518.354 59.45 491.404 56.346 477.54 58.472L479.44 44.587C492.77 51.476 519.597 54.714 536.44 51.687L534.54 65.572Z" fill="#6C63FF"/>
<path d="M497.144 68.169C497.144 68.169 476.859 101.909 429.69 114.54C382.521 127.171 429.305 198.053 429.305 198.053C429.305 198.053 412.293 172.278 436.831 144.981C461.369 117.684 500.856 99.022 497.144 68.169Z" fill="#3F3D56"/>
<path d="M504.831 68.49C504.831 68.49 524.318 114.834 545.712 119.216C567.106 123.598 565.483 196.826 532.027 207.807C532.027 207.807 556.427 164.877 535.57 136.086C514.713 107.295 501.545 84.535 504.831 68.49Z" fill="#3F3D56"/>
<path d="M123.295 360.434C126.19 360.434 128.536 359.056 128.536 357.356C128.536 355.657 126.19 354.279 123.295 354.279C120.401 354.279 118.054 355.657 118.054 357.356C118.054 359.056 120.401 360.434 123.295 360.434Z" fill="#57B894"/>
<path d="M128.686 380.713C131.581 380.713 133.927 379.335 133.927 377.635C133.927 375.935 131.581 374.557 128.686 374.557C125.792 374.557 123.445 375.935 123.445 377.635C123.445 379.335 125.792 380.713 128.686 380.713Z" fill="#57B894"/>
<path d="M139.169 380.713C142.063 380.713 144.41 379.335 144.41 377.635C144.41 375.935 142.063 374.557 139.169 374.557C136.274 374.557 133.927 375.935 133.927 377.635C133.927 379.335 136.274 380.713 139.169 380.713Z" fill="#57B894"/>
<path d="M143.02 437.655C141.845 437.047 140.552 436.847 139.288 437.078C138.023 437.308 136.837 437.96 135.862 438.96C132.939 442.047 132.778 447.636 134.185 452.009C135.592 456.382 138.227 459.981 140.352 463.907C143.207 469.181 145.197 475.319 145.123 481.621C145.048 487.923 142.674 494.36 138.309 497.806C134.257 501.003 129.151 501.309 124.316 501.515" stroke="#3F3D56" stroke-miterlimit="10"/>
<path d="M150.963 442.84C151.587 441.317 149.992 438.822 147.399 437.266C144.806 435.711 142.197 435.685 141.572 437.208C140.947 438.73 142.543 441.226 145.136 442.781C147.729 444.336 150.338 444.363 150.963 442.84Z" fill="#57B894"/>
<path d="M147.265 463.259C147.89 461.736 146.295 459.241 143.701 457.685C141.108 456.13 138.5 456.104 137.875 457.627C137.25 459.149 138.846 461.645 141.439 463.2C144.032 464.755 146.641 464.782 147.265 463.259Z" fill="#57B894"/>
<path d="M137.482 461.029C138.107 459.506 136.511 457.011 133.918 455.455C131.325 453.9 128.716 453.874 128.092 455.397C127.467 456.919 129.062 459.415 131.655 460.97C134.249 462.525 136.857 462.552 137.482 461.029Z" fill="#57B894"/>
<path d="M144.642 484.322C145.266 482.799 143.671 480.303 141.078 478.748C138.484 477.193 135.876 477.166 135.251 478.689C134.626 480.212 136.222 482.707 138.815 484.263C141.408 485.818 144.017 485.844 144.642 484.322Z" fill="#57B894"/>
<path d="M154.032 489.954C154.657 488.431 153.061 485.936 150.468 484.38C147.875 482.825 145.266 482.799 144.641 484.322C144.017 485.844 145.612 488.34 148.205 489.895C150.798 491.45 153.407 491.477 154.032 489.954Z" fill="#57B894"/>
<path d="M115.323 336.7C114.046 336.788 112.815 337.303 111.767 338.189C110.719 339.075 109.896 340.296 109.39 341.716C107.906 346.052 109.816 351.145 112.684 354.307C115.551 357.469 119.235 359.276 122.582 361.652C127.077 364.842 131.117 369.271 133.366 374.957C135.615 380.643 135.854 387.685 133.21 393.117C130.756 398.159 126.294 401.176 122.038 403.959" stroke="#3F3D56" stroke-miterlimit="10"/>
<path d="M119.102 340.156C121.997 340.156 124.343 338.778 124.343 337.078C124.343 335.378 121.997 334 119.102 334C116.208 334 113.861 335.378 113.861 337.078C113.861 338.778 116.208 340.156 119.102 340.156Z" fill="#57B894"/>
<path d="M113.711 363.694C116.606 363.694 118.953 362.315 118.953 360.616C118.953 358.916 116.606 357.538 113.711 357.538C110.817 357.538 108.47 358.916 108.47 360.616C108.47 362.315 110.817 363.694 113.711 363.694Z" fill="#57B894"/>
<path d="M7.69037 466.683C8.59727 465.593 9.73735 464.83 10.9828 464.479C12.2282 464.129 13.5297 464.205 14.7414 464.699C18.4005 466.263 20.2572 471.385 20.2858 476.077C20.3144 480.769 18.9644 485.29 18.189 489.887C17.1474 496.063 17.1726 502.656 19.1672 508.479C21.1617 514.302 25.3346 519.224 30.4433 520.476C35.1851 521.639 40.0237 519.642 44.5801 517.675" stroke="#3F3D56" stroke-miterlimit="10"/>
<path d="M7.29022 472.391C9.22487 469.788 9.94541 466.756 8.8996 465.62C7.85378 464.484 5.43764 465.673 3.50299 468.277C1.56834 470.88 0.8478 473.912 1.89362 475.048C2.93943 476.184 5.35557 474.995 7.29022 472.391Z" fill="#57B894"/>
<path d="M16.9634 489.715C18.898 487.112 19.6186 484.081 18.5727 482.945C17.5269 481.808 15.1108 482.998 13.1761 485.601C11.2415 488.204 10.521 491.236 11.5668 492.372C12.6126 493.508 15.0287 492.319 16.9634 489.715Z" fill="#57B894"/>
<path d="M25.3739 483.274C27.3085 480.671 28.0291 477.639 26.9833 476.503C25.9375 475.367 23.5213 476.557 21.5867 479.16C19.652 481.763 18.9315 484.795 19.9773 485.931C21.0231 487.067 23.4393 485.878 25.3739 483.274Z" fill="#57B894"/>
<path d="M25.8359 508.117C27.7705 505.514 28.4911 502.482 27.4453 501.346C26.3994 500.21 23.9833 501.399 22.0486 504.003C20.114 506.606 19.3935 509.637 20.4393 510.774C21.4851 511.91 23.9012 510.72 25.8359 508.117Z" fill="#57B894"/>
<path d="M18.83 517.545C20.7646 514.941 21.4851 511.91 20.4393 510.774C19.3935 509.638 16.9774 510.827 15.0427 513.43C13.1081 516.034 12.3875 519.065 13.4333 520.201C14.4792 521.337 16.8953 520.148 18.83 517.545Z" fill="#57B894"/>
<path d="M128.231 424.877L127.407 432.18L122.316 477.249L113.978 551.056L111.89 569.535C111.731 570.945 111.155 572.238 110.268 573.175C109.381 574.111 108.243 574.626 107.066 574.626H51.464C50.2884 574.626 49.1523 574.113 48.2655 573.18C47.3787 572.246 46.801 570.957 46.6391 569.549L44.5156 551.056L36.0369 477.249L30.8556 432.148L30.023 424.891C29.9268 424.057 29.9797 423.209 30.1779 422.402C30.3762 421.595 30.7153 420.849 31.1723 420.214C31.6293 419.579 32.1936 419.07 32.8271 418.721C33.4607 418.372 34.1487 418.192 34.8449 418.192H123.406C124.101 418.192 124.788 418.372 125.421 418.72C126.054 419.068 126.617 419.576 127.074 420.209C127.531 420.842 127.871 421.586 128.071 422.391C128.27 423.196 128.325 424.044 128.231 424.877V424.877Z" fill="#6C63FF"/>
<path d="M117.826 398.638H40.712C38.0225 398.638 35.8422 401.274 35.8422 404.526V412.304C35.8422 415.556 38.0225 418.192 40.712 418.192H117.826C120.516 418.192 122.696 415.556 122.696 412.304V404.526C122.696 401.274 120.516 398.638 117.826 398.638Z" fill="#2F2E41"/>
<path opacity="0.1" d="M122.696 407.879V412.304C122.696 413.866 122.183 415.363 121.27 416.467C120.357 417.572 119.118 418.192 117.826 418.192H40.712C39.4204 418.192 38.1818 417.572 37.2685 416.467C36.3553 415.363 35.8422 413.866 35.8422 412.304V407.89C64.7283 411.218 93.8108 411.214 122.696 407.879V407.879Z" fill="black"/>
<path opacity="0.1" d="M127.954 421.994H127.955C127.953 421.99 127.951 421.985 127.95 421.981C127.822 421.576 127.657 421.189 127.459 420.827L127.458 420.826C127.399 420.72 127.337 420.617 127.273 420.515C127.252 420.481 127.229 420.447 127.207 420.414C127.021 420.131 126.813 419.869 126.587 419.632C126.536 419.578 126.485 419.526 126.433 419.475C126.374 419.419 126.315 419.363 126.254 419.31C126.178 419.243 126.1 419.18 126.02 419.118C125.957 419.07 125.894 419.022 125.83 418.977C125.73 418.907 125.628 418.842 125.524 418.78C125.474 418.751 125.424 418.724 125.373 418.697C125.273 418.643 125.172 418.594 125.069 418.549C125.027 418.531 124.987 418.51 124.945 418.494C124.802 418.436 124.656 418.386 124.508 418.345C124.471 418.335 124.434 418.327 124.398 418.318C124.276 418.288 124.153 418.263 124.028 418.244C123.983 418.237 123.938 418.23 123.892 418.224C123.732 418.205 123.571 418.192 123.406 418.192L123.406 418.192H34.8448C34.1495 418.195 33.4627 418.377 32.8304 418.727C32.198 419.076 31.6347 419.585 31.1782 420.219C30.7217 420.853 30.3824 421.598 30.1831 422.403C29.9838 423.209 29.9291 424.056 30.0226 424.889L30.1632 426.114L30.8555 432.148L30.8563 432.148L36.0372 477.249H36.0368L42.8379 536.452L46.6397 569.548C46.8014 570.956 47.3788 572.245 48.2653 573.179C49.1518 574.112 50.2875 574.626 51.463 574.626H54.1016C53.9711 574.215 53.8792 573.787 53.8276 573.351L51.2666 551.056H113.978L122.316 477.249H42.7884L37.6904 432.87C67.5556 435.798 97.5753 435.568 127.407 432.18L128.231 424.877C128.341 423.903 128.245 422.911 127.954 421.994Z" fill="black"/>
<path d="M135.198 427.969C98.0225 432.875 60.5161 432.875 23.3409 427.969C22.0494 427.969 20.8108 427.349 19.8976 426.245C18.9844 425.14 18.4714 423.643 18.4714 422.081V414.302C18.4714 412.741 18.9844 411.243 19.8976 410.139C20.8108 409.035 22.0494 408.415 23.3409 408.415C60.4866 413.937 98.0519 413.937 135.198 408.415C136.489 408.415 137.728 409.035 138.641 410.139C139.554 411.243 140.067 412.741 140.067 414.302V422.081C140.067 423.643 139.554 425.14 138.641 426.245C137.728 427.349 136.489 427.969 135.198 427.969V427.969Z" fill="#2F2E41"/>
<path d="M116.267 548.373H41.3976C40.7254 548.373 40.0754 548.083 39.5642 547.555C39.053 547.027 38.7143 546.297 38.6089 545.494L30.5204 483.882C30.4564 483.394 30.4806 482.896 30.5913 482.421C30.702 481.946 30.8966 481.505 31.1617 481.13C31.4268 480.754 31.756 480.453 32.1267 480.246C32.4974 480.04 32.9008 479.933 33.309 479.933H124.895C125.306 479.933 125.712 480.041 126.084 480.25C126.457 480.459 126.787 480.764 127.052 481.143C127.317 481.523 127.51 481.967 127.619 482.446C127.727 482.925 127.748 483.427 127.679 483.916L119.051 545.529C118.94 546.324 118.599 547.046 118.09 547.566C117.58 548.087 116.935 548.373 116.267 548.373Z" fill="#2F2E41"/>
<path d="M71.736 526.27C70.7724 527.65 69.4248 528.685 67.693 529.375C65.9742 530.052 63.969 530.391 61.6774 530.391C59.3597 530.391 57.3024 529.85 55.5055 528.77C53.7086 527.676 52.3154 526.126 51.3258 524.121C50.3492 522.116 49.8479 519.792 49.8219 517.148V514.668C49.8219 510.384 50.818 507.064 52.8102 504.707C54.8154 502.35 57.6279 501.172 61.2477 501.172C64.2164 501.172 66.6058 501.934 68.4156 503.457C70.2255 504.967 71.3323 507.116 71.736 509.902H67.986C67.2828 506.139 65.0433 504.258 61.2672 504.258C58.7542 504.258 56.8466 505.143 55.5446 506.914C54.2555 508.672 53.6045 511.224 53.5914 514.57V516.895C53.5914 520.085 54.3206 522.624 55.7789 524.512C57.2373 526.387 59.2099 527.324 61.6969 527.324C63.1031 527.324 64.3336 527.168 65.3883 526.855C66.443 526.543 67.3154 526.016 68.0055 525.273V518.887H61.4235V515.84H71.736V526.27ZM82.8492 501.562L92.1461 524.766L101.443 501.562H106.306V530H102.556V518.926L102.908 506.973L93.5719 530H90.7008L81.3844 507.031L81.7555 518.926V530H78.0055V501.562H82.8492Z" fill="white"/>
<path d="M71.736 526.27L72.5559 526.842L72.736 526.584V526.27H71.736ZM67.693 529.375L68.0595 530.305L68.0632 530.304L67.693 529.375ZM55.5055 528.77L54.9855 529.624L54.9901 529.626L55.5055 528.77ZM51.3258 524.121L50.4267 524.559L50.4291 524.564L51.3258 524.121ZM49.8219 517.148H48.8219L48.8219 517.158L49.8219 517.148ZM52.8102 504.707L52.0485 504.059L52.0465 504.061L52.8102 504.707ZM68.4156 503.457L67.7717 504.222L67.7749 504.225L68.4156 503.457ZM71.736 509.902V510.902H72.8913L72.7256 509.759L71.736 509.902ZM67.986 509.902L67.003 510.086L67.1555 510.902H67.986V509.902ZM55.5446 506.914L54.7389 506.322L54.7382 506.323L55.5446 506.914ZM53.5914 514.57L52.5914 514.566V514.57H53.5914ZM55.7789 524.512L54.9875 525.123L54.9896 525.126L55.7789 524.512ZM68.0055 525.273L68.7378 525.954L69.0055 525.667V525.273H68.0055ZM68.0055 518.887H69.0055V517.887H68.0055V518.887ZM61.4235 518.887H60.4235V519.887H61.4235V518.887ZM61.4235 515.84V514.84H60.4235V515.84H61.4235ZM71.736 515.84H72.736V514.84H71.736V515.84ZM70.916 525.697C70.0762 526.9 68.8933 527.82 67.3228 528.446L68.0632 530.304C69.9562 529.55 71.4687 528.399 72.5559 526.842L70.916 525.697ZM67.3265 528.445C65.7488 529.066 63.8727 529.391 61.6774 529.391V531.391C64.0653 531.391 66.1997 531.038 68.0595 530.305L67.3265 528.445ZM61.6774 529.391C59.5216 529.391 57.6461 528.89 56.0209 527.913L54.9901 529.626C56.9586 530.81 59.1977 531.391 61.6774 531.391V529.391ZM56.0254 527.915C54.401 526.927 53.1337 525.525 52.2225 523.679L50.4291 524.564C51.4971 526.728 53.0162 528.425 54.9855 529.624L56.0254 527.915ZM52.2249 523.683C51.3242 521.834 50.8467 519.661 50.8219 517.139L48.8219 517.158C48.8492 519.923 49.3743 522.398 50.4268 524.559L52.2249 523.683ZM50.8219 517.148V514.668H48.8219V517.148H50.8219ZM50.8219 514.668C50.8219 510.529 51.7843 507.47 53.5739 505.353L52.0465 504.061C49.8517 506.658 48.8219 510.239 48.8219 514.668H50.8219ZM53.5718 505.355C55.354 503.26 57.8659 502.172 61.2477 502.172V500.172C57.3898 500.172 54.2768 501.44 52.0486 504.059L53.5718 505.355ZM61.2477 502.172C64.0426 502.172 66.1843 502.886 67.7717 504.222L69.0596 502.692C67.0272 500.981 64.3903 500.172 61.2477 500.172V502.172ZM67.7749 504.225C69.36 505.548 70.3708 507.453 70.7463 510.046L72.7256 509.759C72.2939 506.779 71.0911 504.387 69.0564 502.689L67.7749 504.225ZM71.736 508.902H67.986V510.902H71.736V508.902ZM68.9689 509.719C68.5882 507.681 67.7675 506.034 66.4222 504.903C65.0752 503.772 63.3208 503.258 61.2672 503.258V505.258C62.9897 505.258 64.2431 505.685 65.1357 506.435C66.0299 507.186 66.6806 508.361 67.003 510.086L68.9689 509.719ZM61.2672 503.258C58.4883 503.258 56.2584 504.255 54.7389 506.322L56.3502 507.506C57.4349 506.031 59.0201 505.258 61.2672 505.258V503.258ZM54.7382 506.323C53.2733 508.32 52.6049 511.115 52.5914 514.566L54.5914 514.574C54.604 511.333 55.2377 509.024 56.351 507.505L54.7382 506.323ZM52.5914 514.57V516.895H54.5914V514.57H52.5914ZM52.5914 516.895C52.5914 520.232 53.3547 523.009 54.9875 525.123L56.5703 523.9C55.2865 522.238 54.5914 519.938 54.5914 516.895H52.5914ZM54.9896 525.126C56.6475 527.257 58.9182 528.324 61.6969 528.324V526.324C59.5017 526.324 57.827 525.516 56.5683 523.898L54.9896 525.126ZM61.6969 528.324C63.174 528.324 64.504 528.16 65.6724 527.814L65.1042 525.897C64.1632 526.175 63.0323 526.324 61.6969 526.324V528.324ZM65.6724 527.814C66.8835 527.455 67.9155 526.839 68.7378 525.954L67.2732 524.592C66.7152 525.193 66.0025 525.631 65.1042 525.897L65.6724 527.814ZM69.0055 525.273V518.887H67.0055V525.273H69.0055ZM68.0055 517.887H61.4235V519.887H68.0055V517.887ZM62.4235 518.887V515.84H60.4235V518.887H62.4235ZM61.4235 516.84H71.736V514.84H61.4235V516.84ZM70.736 515.84V526.27H72.736V515.84H70.736ZM82.8492 501.562L83.7775 501.191L83.5259 500.562H82.8492V501.562ZM92.1461 524.766L91.2179 525.138L92.1461 527.454L93.0744 525.138L92.1461 524.766ZM101.443 501.562V500.562H100.766L100.515 501.191L101.443 501.562ZM106.306 501.562H107.306V500.562H106.306V501.562ZM106.306 530V531H107.306V530H106.306ZM102.556 530H101.556V531H102.556V530ZM102.556 518.926L101.557 518.896L101.556 518.911V518.926H102.556ZM102.908 506.973L103.907 507.002L101.981 506.597L102.908 506.973ZM93.5719 530V531H94.2455L94.4986 530.376L93.5719 530ZM90.7008 530L89.7741 530.376L90.0273 531H90.7008V530ZM81.3844 507.031L82.3111 506.655L80.3849 507.062L81.3844 507.031ZM81.7555 518.926H82.7555V518.91L82.755 518.895L81.7555 518.926ZM81.7555 530V531H82.7555V530H81.7555ZM78.0055 530H77.0055V531H78.0055V530ZM78.0055 501.562V500.562H77.0055V501.562H78.0055ZM81.921 501.934L91.2179 525.138L93.0744 524.394L83.7775 501.191L81.921 501.934ZM93.0744 525.138L102.371 501.934L100.515 501.191L91.2179 524.394L93.0744 525.138ZM101.443 502.562H106.306V500.562H101.443V502.562ZM105.306 501.562V530H107.306V501.562H105.306ZM106.306 529H102.556V531H106.306V529ZM103.556 530V518.926H101.556V530H103.556ZM103.556 518.955L103.907 507.002L101.908 506.943L101.557 518.896L103.556 518.955ZM101.981 506.597L92.6452 529.624L94.4986 530.376L103.835 507.348L101.981 506.597ZM93.5719 529H90.7008V531H93.5719V529ZM91.6275 529.624L82.3111 506.655L80.4577 507.407L89.7741 530.376L91.6275 529.624ZM80.3849 507.062L80.756 518.957L82.755 518.895L82.3839 507L80.3849 507.062ZM80.7555 518.926V530H82.7555V518.926H80.7555ZM81.7555 529H78.0055V531H81.7555V529ZM79.0055 530V501.562H77.0055V530H79.0055ZM78.0055 502.562H82.8492V500.562H78.0055V502.562Z" fill="#FAF4F4"/>
</svg>
